<?xml version="1.0" encoding="UTF-8"?>
<svg width="236px" height="165px" viewBox="0 0 236 165" version="1.1" xmlns="http://www.w3.org/2000/svg" xmlns:xlink="http://www.w3.org/1999/xlink">
    <!-- Generator: Sketch 53 (72520) - https://sketchapp.com -->
    <title>Pymes</title>
    <desc>Created with Sketch.</desc>
    <g id="Page-1" stroke="none" stroke-width="1" fill="none" fill-rule="evenodd">
        <g id="Artboard" transform="translate(-344.000000, -287.000000)">
            <g id="Pymes" transform="translate(344.000000, 287.000000)">
                <g id="Group-17" transform="translate(0.000000, -0.000011)">
                    <path d="M66.2617727,140.43375 C56.4292727,143.127453 47.907774,145.459797 38.730774,147.98925 C46.269024,157.121547 53.381203,154.362147 66.2617727,140.43375 Z" id="Fill-7" fill="#A6CE39"></path>
                    <path d="M19.0002263,132.943953 C26.3418253,143.948703 39.81235,143.324557 56.298176,132.155557 C43.74535,132.418353 31.7497003,132.681147 19.0002263,132.943953 Z" id="Fill-9" fill="#A6CE39"></path>
                    <path d="M54.724975,123.286047 C54.659426,122.793297 51.840774,121.70925 50.005377,121.085093 C34.4700267,117.734387 18.934676,114.350843 2.51440402,110.803047 C5.59525388,118.5885 10.0526539,123.1875 16.9026296,123.483147 C27.8167003,123.975897 43.74535,123.417453 54.724975,123.286047 Z" id="Fill-10" fill="#A6CE39"></path>
                    <path d="M56.134301,107.288103 C56.625926,106.729647 52.627377,101.736453 52.070203,100.619557 C37.9114039,82.0921566 23.7526026,63.5647566 8.83997993,44.0518569 C6.57850526,53.2170049 5.89022993,61.0353066 11.8552803,66.8169066 C24.4081,79.00425 43.188176,95.5277967 56.134301,107.288103 Z" id="Fill-11" fill="#00ACCD"></path>
                    <path d="M9.69212567,98.6157033 C21.4255753,103.181853 41.582203,109.456203 53.57785,113.398203 C53.446752,112.806907 48.038877,109.916103 46.301801,108.799203 C31.1925267,99.2398533 16.0832507,89.6805 0.252926,79.66125 C0.810101,89.5819533 3.43210093,96.1519533 9.69212567,98.6157033 Z" id="Fill-12" fill="#00ACCD"></path>
                    <path d="M63.410351,97.8272967 C46.465676,80.3182434 38.6324503,65.6671467 38.6324503,65.6671467 C33.290127,56.6990967 28.865502,47.0740461 25.1947003,37.2847474 C20.737301,25.557301 22.4088253,11.2018493 28.603301,0 C35.22385,30.123449 63.410351,97.8272967 63.410351,97.8272967 Z" id="Fill-13" fill="#00ACCD"></path>
                    <path d="M85.0418543,151.175703 C81.5021543,155.019157 78.3885293,158.402703 74.6849543,162.44325 C83.1408977,163.625853 85.1073977,161.359203 85.0418543,151.175703 Z" id="Fill-14" fill="#FAA619"></path>
                    <path d="M55.9376477,157.68 C64.8524477,162.311853 67.343351,161.063547 74.816051,147.759297 C68.687126,150.978603 62.525426,154.197897 55.9376477,157.68 Z" id="Fill-15" fill="#FAA619"></path>
                    <path d="M88.2210227,164.25 C95.955926,163.165953 95.792051,158.402703 95.300426,153.57375 C93.2356043,156.6945 91.1707727,159.81525 88.2210227,164.25 Z" id="Fill-16" fill="#FAA619"></path>
                </g>
                <g id="Group-22" transform="translate(73.000000, 76.999989)" fill="#000000">
                    <g id="Group-19" font-family="LucidaGrande, Lucida Grande" font-size="51.1125015" font-weight="normal">
                        <text id="P">
                            <tspan x="0" y="49.05305">P</tspan>
                        </text>
                        <text id="Y">
                            <tspan x="31.3710938" y="49.05305">Y</tspan>
                        </text>
                        <text id="M">
                            <tspan x="62.4375" y="49.05305">M</tspan>
                        </text>
                        <text id="E">
                            <tspan x="108.984375" y="49.05305">E</tspan>
                        </text>
                        <text id="S">
                            <tspan x="138.41016" y="49.05305">S</tspan>
                        </text>
                    </g>
                    <g id="Group-21" transform="translate(29.000000, 62.000000)" fill-rule="nonzero">
                        <path d="M1.4921875,15.0000112 L1.4921875,3.4375112 L7.953125,3.4375112 L7.953125,4.6640737 L3.1328125,4.6640737 L3.1328125,8.3750112 L7.171875,8.3750112 L7.171875,9.5859487 L3.1328125,9.5859487 L3.1328125,13.7734487 L8.2890625,13.7734487 L8.2890625,15.0000112 L1.4921875,15.0000112 Z M15.7640619,15.0000112 L15.7640619,3.4375112 L17.3734369,3.4375112 L23.1937494,12.3671987 L23.1937494,3.4375112 L24.5999994,3.4375112 L24.5999994,15.0000112 L22.9984369,15.0000112 L17.1703119,6.0703237 L17.1703119,15.0000112 L15.7640619,15.0000112 Z M49.7062483,10.5781362 L47.7374983,5.5937612 L45.7609358,10.5781362 L49.7062483,10.5781362 Z M51.4406233,15.0000112 L50.1828108,11.7968862 L45.2843733,11.7968862 L44.0109358,15.0000112 L42.4874983,15.0000112 L47.0734358,3.4375112 L48.6984358,3.4375112 L53.2140608,15.0000112 L51.4406233,15.0000112 Z M65.4390602,15.2890737 C63.6421762,15.2890737 62.2541693,14.7617352 61.2749977,13.7070425 C60.2958261,12.6523497 59.8062477,11.158875 59.8062477,9.2265737 C59.8062477,7.29948073 60.3049406,5.80470401 61.3023415,4.7421987 C62.2997423,3.67969339 63.7046761,3.1484487 65.5171852,3.1484487 C66.5536487,3.1484487 67.7671783,3.31771784 69.1578102,3.6562612 L69.1578102,5.1953237 C67.574469,4.64844597 66.353127,4.3750112 65.4937477,4.3750112 C64.2385331,4.3750112 63.2671886,4.79948612 62.5796852,5.6484487 C61.8921818,6.49741128 61.5484352,7.69531597 61.5484352,9.2421987 C61.5484352,10.7161644 61.915619,11.8789132 62.6499977,12.73048 C63.3843764,13.5820467 64.3869705,14.0078237 65.6578102,14.0078237 C66.7515657,14.0078237 67.923429,13.6718896 69.1734352,13.0000112 L69.1734352,14.4062612 C68.0328045,14.9948058 66.7880253,15.2890737 65.4390602,15.2890737 Z M82.1093721,15.2890737 C80.3124882,15.2890737 78.9244812,14.7617352 77.9453096,13.7070425 C76.9661381,12.6523497 76.4765596,11.158875 76.4765596,9.2265737 C76.4765596,7.29948073 76.9752526,5.80470401 77.9726534,4.7421987 C78.9700542,3.67969339 80.3749881,3.1484487 82.1874971,3.1484487 C83.2239607,3.1484487 84.4374902,3.31771784 85.8281221,3.6562612 L85.8281221,5.1953237 C84.2447809,4.64844597 83.0234389,4.3750112 82.1640596,4.3750112 C80.908845,4.3750112 79.9375006,4.79948612 79.2499971,5.6484487 C78.5624937,6.49741128 78.2187471,7.69531597 78.2187471,9.2421987 C78.2187471,10.7161644 78.585931,11.8789132 79.3203096,12.73048 C80.0546883,13.5820467 81.0572825,14.0078237 82.3281221,14.0078237 C83.4218776,14.0078237 84.5937409,13.6718896 85.8437471,13.0000112 L85.8437471,14.4062612 C84.7031164,14.9948058 83.4583372,15.2890737 82.1093721,15.2890737 Z M93.8187466,15.0000112 L93.8187466,3.4375112 L95.4593716,3.4375112 L95.4593716,15.0000112 L93.8187466,15.0000112 Z M108.692183,15.2890737 C107.088009,15.2890737 105.797657,14.7330897 104.82109,13.621105 C103.844522,12.5091202 103.356246,11.0390828 103.356246,9.2109487 C103.356246,7.37239784 103.847127,5.90236046 104.828902,4.80079245 C105.810678,3.69922444 107.121863,3.1484487 108.762496,3.1484487 C110.397921,3.1484487 111.707804,3.69792237 112.692183,4.7968862 C113.676563,5.89585003 114.168746,7.3619812 114.168746,9.1953237 C114.168746,11.0651247 113.676563,12.5481828 112.692183,13.6445425 C111.707804,14.7409021 110.374484,15.2890737 108.692183,15.2890737 Z M108.715621,14.0625112 C109.897919,14.0625112 110.811972,13.6367342 111.457808,12.7851675 C112.103645,11.9336007 112.426558,10.7317898 112.426558,9.1796987 C112.426558,7.67448284 112.102343,6.49741128 111.453902,5.6484487 C110.805462,4.79948612 109.908335,4.3750112 108.762496,4.3750112 C107.611449,4.3750112 106.71302,4.80078819 106.067183,5.65235495 C105.421347,6.50392171 105.098433,7.68750362 105.098433,9.2031362 C105.098433,10.7135604 105.418743,11.9010485 106.059371,12.7656362 C106.699999,13.6302239 107.585407,14.0625112 108.715621,14.0625112 Z M122.06562,15.0000112 L122.06562,3.4375112 L123.674995,3.4375112 L129.495308,12.3671987 L129.495308,3.4375112 L130.901558,3.4375112 L130.901558,15.0000112 L129.299995,15.0000112 L123.47187,6.0703237 L123.47187,15.0000112 L122.06562,15.0000112 Z" id="ENACCION"></path>
                    </g>
                </g>
            </g>
        </g>
    </g>
</svg>