<svg xmlns="http://www.w3.org/2000/svg" width="48" height="48" viewBox="0 0 48 48"><path d="M24.006,0h-.012A23.985,23.985,0,0,0,4.569,38.067L1.578,46.983,10.8,44.034A24,24,0,1,0,24.006,0ZM37.971,33.891c-.579,1.635-2.877,2.991-4.71,3.387-1.254.267-2.892.48-8.406-1.806C17.8,32.55,13.26,25.383,12.906,24.918c-.339-.465-2.85-3.8-2.85-7.239a7.662,7.662,0,0,1,2.454-5.841,3.487,3.487,0,0,1,2.454-.861c.3,0,.564.015.8.027.7.03,1.059.072,1.524,1.185.579,1.4,1.989,4.839,2.157,5.193a1.429,1.429,0,0,1,.1,1.3,4.147,4.147,0,0,1-.777,1.1c-.354.408-.69.72-1.044,1.158-.324.381-.69.789-.282,1.494a21.3,21.3,0,0,0,3.894,4.839,17.645,17.645,0,0,0,5.628,3.471,1.517,1.517,0,0,0,1.692-.267,29.037,29.037,0,0,0,1.875-2.484,1.339,1.339,0,0,1,1.722-.522c.648.225,4.077,1.92,4.782,2.271s1.17.522,1.341.819A5.977,5.977,0,0,1,37.971,33.891Z"/></svg>