<?xml version="1.0" encoding="UTF-8"?>
<svg width="248px" height="165px" viewBox="0 0 248 165" version="1.1" xmlns="http://www.w3.org/2000/svg" xmlns:xlink="http://www.w3.org/1999/xlink">
    <!-- Generator: Sketch 53 (72520) - https://sketchapp.com -->
    <title>Pymes</title>
    <desc>Created with Sketch.</desc>
    <g id="Page-1" stroke="none" stroke-width="1" fill="none" fill-rule="evenodd">
        <g id="Artboard" transform="translate(-344.000000, -287.000000)">
            <g id="Pymes" transform="translate(344.000000, 287.000000)">
                <g id="Group-17" transform="translate(0.000000, -0.000011)">
                    <path d="M66.2617727,140.43375 C56.4292727,143.127453 47.907774,145.459797 38.730774,147.98925 C46.269024,157.121547 53.381203,154.362147 66.2617727,140.43375 Z" id="Fill-7" fill="#A6CE39"></path>
                    <path d="M19.0002263,132.943953 C26.3418253,143.948703 39.81235,143.324557 56.298176,132.155557 C43.74535,132.418353 31.7497003,132.681147 19.0002263,132.943953 Z" id="Fill-9" fill="#A6CE39"></path>
                    <path d="M54.724975,123.286047 C54.659426,122.793297 51.840774,121.70925 50.005377,121.085093 C34.4700267,117.734387 18.934676,114.350843 2.51440402,110.803047 C5.59525388,118.5885 10.0526539,123.1875 16.9026296,123.483147 C27.8167003,123.975897 43.74535,123.417453 54.724975,123.286047 Z" id="Fill-10" fill="#A6CE39"></path>
                    <path d="M56.134301,107.288103 C56.625926,106.729647 52.627377,101.736453 52.070203,100.619557 C37.9114039,82.0921566 23.7526026,63.5647566 8.83997993,44.0518569 C6.57850526,53.2170049 5.89022993,61.0353066 11.8552803,66.8169066 C24.4081,79.00425 43.188176,95.5277967 56.134301,107.288103 Z" id="Fill-11" fill="#00ACCD"></path>
                    <path d="M9.69212567,98.6157033 C21.4255753,103.181853 41.582203,109.456203 53.57785,113.398203 C53.446752,112.806907 48.038877,109.916103 46.301801,108.799203 C31.1925267,99.2398533 16.0832507,89.6805 0.252926,79.66125 C0.810101,89.5819533 3.43210093,96.1519533 9.69212567,98.6157033 Z" id="Fill-12" fill="#00ACCD"></path>
                    <path d="M63.410351,97.8272967 C46.465676,80.3182434 38.6324503,65.6671467 38.6324503,65.6671467 C33.290127,56.6990967 28.865502,47.0740461 25.1947003,37.2847474 C20.737301,25.557301 22.4088253,11.2018493 28.603301,0 C35.22385,30.123449 63.410351,97.8272967 63.410351,97.8272967 Z" id="Fill-13" fill="#00ACCD"></path>
                    <path d="M85.0418543,151.175703 C81.5021543,155.019157 78.3885293,158.402703 74.6849543,162.44325 C83.1408977,163.625853 85.1073977,161.359203 85.0418543,151.175703 Z" id="Fill-14" fill="#FAA619"></path>
                    <path d="M55.9376477,157.68 C64.8524477,162.311853 67.343351,161.063547 74.816051,147.759297 C68.687126,150.978603 62.525426,154.197897 55.9376477,157.68 Z" id="Fill-15" fill="#FAA619"></path>
                    <path d="M88.2210227,164.25 C95.955926,163.165953 95.792051,158.402703 95.300426,153.57375 C93.2356043,156.6945 91.1707727,159.81525 88.2210227,164.25 Z" id="Fill-16" fill="#FAA619"></path>
                </g>
                <g id="Group-22" transform="translate(75.000000, 81.999989)" fill="#000000" font-weight="normal">
                    <g id="Group-19" transform="translate(0.000000, 0.000011)" font-family="LucidaGrande, Lucida Grande" font-size="51.1125015">
                        <text id="P">
                            <tspan x="0" y="49.0000112">P</tspan>
                        </text>
                        <text id="Y">
                            <tspan x="34" y="49.0000112">Y</tspan>
                        </text>
                        <text id="M">
                            <tspan x="67" y="49.0000112">M</tspan>
                        </text>
                        <text id="E">
                            <tspan x="117" y="49.0000112">E</tspan>
                        </text>
                        <text id="S">
                            <tspan x="148" y="49.0000112">S</tspan>
                        </text>
                    </g>
                    <g id="Group-21" transform="translate(27.000000, 60.000000)" font-family="ArialUnicodeMS, Arial Unicode MS" font-size="20" letter-spacing="4.56666708">
                        <text id="EN-ACCION">
                            <tspan x="0" y="21.0000112">EN ACCIO</tspan>
                            <tspan x="133.213024" y="21.0000112" letter-spacing="4.8070178">N</tspan>
                        </text>
                    </g>
                </g>
            </g>
        </g>
    </g>
</svg>